<?xml version="1.0" encoding="utf-8"?>
<svg version="1.2" xmlns="http://www.w3.org/2000/svg" viewBox="0 0 1080 1080" width="1080" height="1080">
  <style>
		.s0 { fill: #ff3e87 } 
		.s1 { fill: #030303 } 
	</style>
  <path id="Color Fill 2" fill-rule="evenodd" class="s0" d="m635.5 394.91c1.65 0.58 4.8 2.56 7 4.4 2.2 1.85 5.77 6.02 7.92 9.27 2.16 3.26 4.77 8.39 5.8 11.42 1.21 3.55 1.8 7.8 1.67 12-0.11 3.57-0.86 8.75-1.66 11.5-0.81 2.75-1.47 7.25-1.47 10 0.01 2.76 0.8 6.57 1.77 8.5 0.96 1.92 2.81 4.74 4.11 6.25 1.3 1.51 2.36 3.54 2.36 4.5 0 1-1.62 2.61-3.75 3.75-2.57 1.37-3.84 2.79-4.04 4.5-0.16 1.37 0.4 3.51 1.25 4.75 1.25 1.82 1.3 2.54 0.29 3.79-0.69 0.85-2.04 1.3-3 1-0.96-0.3-1.75-0.32-1.75-0.04 0 0.27 0.9 1.62 2 3 1.54 1.92 1.77 2.96 1 4.5-0.56 1.12-1.99 1.99-3.25 1.98-2.11-0.01-2.2 0.26-1.5 4.5 0.63 3.81 0.43 4.84-1.25 6.52-1.28 1.28-3.36 2.01-5.75 2.02-2.14 0.02-5.9-1.09-8.75-2.58-2.75-1.44-7.7-3.24-11-4.01-3.3-0.77-8.48-1.4-11.5-1.39-3.15 0-7.21 0.78-9.5 1.81-2.2 0.99-5.15 3.12-6.54 4.73-1.4 1.61-3.15 4.72-3.89 6.92-0.88 2.6-1.15 6.27-0.77 10.5 0.4 4.55 1.6 8.59 4.03 13.5 2.16 4.39 5.29 8.68 8.36 11.5 2.69 2.47 8.93 6.6 13.85 9.16 4.93 2.56 11.66 5.44 14.96 6.39 3.36 0.97 9.73 1.78 14.5 1.84 7.29 0.09 9.28-0.27 14-2.55 3.02-1.46 6.29-3.82 7.25-5.25 0.96-1.42 2.02-3.6 2.35-4.84 0.32-1.24-0.13-3.71-1-5.5-0.88-1.79-2.74-3.81-4.13-4.5-1.39-0.69-2.51-1.59-2.5-2 0.02-0.41 1.49-0.16 3.28 0.57 1.79 0.73 4.3 2.86 5.59 4.75 1.87 2.75 2.27 4.46 2 8.62-0.29 4.49-0.88 5.74-4.34 9.27-2.2 2.25-6.02 4.87-8.5 5.82-3.41 1.3-7.58 1.72-17.2 1.72-6.99 0-12.39 0.28-12 0.62 0.38 0.34 3.85 1.33 7.7 2.19 3.85 0.86 8.8 1.81 11 2.11 2.2 0.3 7.83-0.07 12.5-0.81 4.67-0.75 11.2-2.44 14.5-3.76 3.3-1.33 8.66-4.2 11.91-6.38 3.26-2.18 7.98-6.23 10.5-8.99 2.53-2.76 6.01-7.48 7.76-10.5 1.74-3.01 4.12-8.4 5.29-11.98 1.17-3.58 2.34-7.17 2.59-8 0.26-0.83 0.66-1.28 0.88-1 0.23 0.27-0.17 2.97-0.89 6-0.71 3.02-2.26 7.97-3.44 11-1.18 3.02-3.6 7.71-5.37 10.41-1.78 2.7-5.93 7.39-9.23 10.42-3.56 3.26-9.26 7.07-14 9.34-4.4 2.11-11.38 4.57-15.5 5.47-5.54 1.2-10.51 1.5-19 1.12-6.33-0.28-14.42-1.28-18-2.23-3.58-0.95-9.2-2.99-12.5-4.55-3.3-1.55-8.7-4.61-12-6.79-3.3-2.18-8.48-6.62-11.5-9.86-3.02-3.24-7.16-9.02-9.19-12.86-2.03-3.83-4.38-9.89-5.23-13.47-0.85-3.58-1.57-9.65-1.59-13.5-0.02-4.26 0.75-9.55 1.96-13.5 1.1-3.58 3.51-8.75 5.36-11.5 1.84-2.75 5.79-7.45 8.77-10.44 2.98-2.99 10.15-9.34 15.92-14.1 5.77-4.76 13.42-11.8 17-15.63 3.58-3.84 8.14-10.09 10.15-13.9 2.01-3.81 4.32-9.18 5.14-11.93 0.88-2.98 1.4-8.23 1.28-13-0.14-5.18-0.8-9.15-1.89-11.25-0.92-1.79-3.59-5.31-5.93-7.82-4.2-4.52-4.22-4.56-1.25-3.52zm-0.95 30.09c0.3 0 0.27 1.91-0.06 4.25-0.34 2.34-1.9 6.95-3.47 10.25-1.57 3.3-4.81 8.21-7.19 10.92-2.38 2.7-8.83 8.32-14.33 12.48-5.5 4.16-13.31 10.72-17.36 14.58-4.05 3.86-9.59 10.39-12.32 14.52-2.73 4.12-5.87 10.42-6.98 14-1.45 4.66-2.05 9.47-2.12 17-0.06 7.41 0.44 12.26 1.7 16.5 0.99 3.3 3.27 8.92 5.07 12.5 1.8 3.58 5.13 8.86 7.39 11.75 2.27 2.89 3.67 5.25 3.12 5.25-0.55 0-3.69-3.26-6.98-7.25-3.28-3.99-7.56-10.4-9.5-14.25-1.95-3.85-4.47-10.6-5.6-15-1.57-6.04-1.93-9.71-1.5-15 0.31-3.85 1.26-9.25 2.12-12 0.85-2.75 2.93-7.7 4.61-11 1.69-3.3 5.38-8.85 8.21-12.34 2.83-3.49 8.06-8.7 11.64-11.57 3.58-2.88 10.99-8.58 16.48-12.66 5.49-4.09 12.39-9.91 15.33-12.93 2.95-3.03 6.68-8.2 8.29-11.5 1.62-3.3 2.93-6.56 2.92-7.25-0.01-0.69 0.23-1.25 0.53-1.25z"/>
  <path id="Color Fill 1" fill-rule="evenodd" class="s1" d="m664 395.13c0.27-0.07 4.55 0.37 9.5 0.97 4.95 0.61 12.6 2.24 17 3.64 4.4 1.4 11.15 4.05 15 5.91 3.85 1.85 8.13 3.36 9.5 3.35 1.38 0 3.96-0.91 5.75-2 2.08-1.28 4.1-3.89 5.61-7.25 1.29-2.89 2.6-4.8 2.9-4.25 0.3 0.55 0.84 7.98 1.21 16.5 0.36 8.52 0.8 15.73 0.99 16 0.18 0.27 0.64 5.9 1.02 12.5 0.38 6.6 0.88 12.34 1.11 12.75 0.22 0.41 0.07 0.76-0.34 0.77-0.41 0.02-2.19-3.7-3.94-8.25-1.76-4.55-5.4-11.64-8.1-15.77-2.69-4.12-7.1-9.57-9.8-12.09-2.7-2.52-7.16-6.03-9.91-7.78-2.75-1.76-7.92-4.1-11.5-5.19-3.58-1.09-9.88-2.41-14-2.92-4.71-0.59-10.94-0.58-16.75 0.02-8.87 0.92-9.35 0.87-11.73-1.29-1.37-1.24-2.49-2.59-2.5-3-0.01-0.41 0.99-0.73 2.23-0.72 1.24 0.02 5.4-0.37 9.25-0.86 3.85-0.5 7.23-0.97 7.5-1.04zm-569.25 2.87c21.31 0 47.07 0.47 57.25 1.06 10.18 0.59 22.32 1.72 27 2.53 4.68 0.8 10.3 1.92 12.5 2.49 2.2 0.57 6.93 2.12 10.5 3.45 3.57 1.32 9.43 4.28 13 6.58 3.57 2.29 8.47 5.79 10.88 7.78 2.41 1.99 7.1 7.21 10.42 11.61 3.31 4.4 7.97 12.05 10.34 17 2.36 4.95 5.46 13.5 6.88 19 2.08 8.09 2.61 12.68 2.78 24 0.11 7.7-0.13 16.93-0.52 20.5-0.4 3.58-1.89 10.55-3.31 15.5-1.42 4.95-3.6 11.25-4.85 14-1.24 2.75-3.98 7.7-6.08 11-2.11 3.3-5.9 8.44-8.43 11.42-2.54 2.98-7.99 8.1-12.11 11.37-4.13 3.27-11.1 7.67-15.5 9.77-4.4 2.11-12.05 5-17 6.43-4.95 1.42-13.5 3.24-19 4.02-7.38 1.06-23.4 1.51-61.17 1.71-28.14 0.15-51.09 0.2-51 0.1 0.09-0.1 1.52-0.47 3.17-0.82 1.65-0.35 4.8-0.83 7-1.08 2.2-0.24 5.69-1.56 7.75-2.93 2.06-1.37 4.54-3.72 5.5-5.22 0.96-1.5 2.3-5.44 2.98-8.75 0.91-4.44 1.23-25.68 1.24-81.02 0.01-50.35-0.35-77.14-1.09-81.5-0.61-3.57-1.9-7.85-2.87-9.5-1-1.71-4.07-4.19-7.13-5.76-4.2-2.16-6.75-2.76-11.63-2.75-3.51 0-6.25-0.43-6.25-0.99 0-0.65 13.58-1 38.75-1zm540.75 2.14l2.25 2.68c1.23 1.48 2.23 3.13 2.22 3.68-0.02 0.55-2.78 2.57-6.14 4.5-3.36 1.93-8.86 6.47-12.22 10.1-3.64 3.93-7.71 9.8-10.06 14.5-2.17 4.35-5.1 11.34-6.5 15.54-2.51 7.5-2.69 7.74-10.55 13.59-4.4 3.28-10.26 8.39-13.02 11.36-2.77 2.98-5.99 6.76-7.17 8.41-1.18 1.65-2.36 2.77-2.61 2.5-0.26-0.27 0.15-4.32 0.91-9 0.76-4.68 2.34-11.43 3.52-15 1.18-3.57 3.46-9.43 5.07-13 1.61-3.57 5.32-10.1 8.24-14.5 2.93-4.4 8.42-10.93 12.19-14.52 3.78-3.58 9.76-8.31 13.29-10.5 3.53-2.19 9.61-5.41 13.5-7.16zm-508.5 6.31c-4.67 0.74-10.64 1.83-13.25 2.44l-4.75 1.11 0.5 178.41c14.6 3.21 21.52 3.77 33 3.87 12.55 0.11 17.4-0.24 22.5-1.64 3.58-0.97 10.1-3.5 14.5-5.61 4.4-2.1 11.15-6.27 15-9.26 3.9-3.02 9.68-8.94 13.04-13.35 3.33-4.36 7.48-10.85 9.23-14.42 1.74-3.58 4.33-10.55 5.74-15.5 1.41-4.95 2.89-12.15 3.28-16 0.39-3.85 0.71-11.73 0.71-17.5 0-5.78-0.33-13.65-0.75-17.5-0.41-3.85-1.57-10.15-2.58-14-1.01-3.85-3.11-9.93-4.68-13.5-1.56-3.58-4.73-9.43-7.05-13-2.31-3.58-7.97-10.05-12.57-14.38-6.65-6.25-10.42-8.86-18.37-12.69-5.97-2.88-13.22-5.48-18-6.46-4.4-0.9-12.27-1.8-17.5-2-5.22-0.19-13.32 0.25-18 0.98zm203 15.55c32.45 0 59.18 0.34 59.39 0.75 0.21 0.41 0.66 8.06 1 17 0.59 15.79 0.56 16.25-1.39 16.25-1.52 0-2.24-1.01-3.03-4.25-0.57-2.34-1.67-6.05-2.44-8.25-0.78-2.2-3.24-5.69-5.47-7.75-2.97-2.75-5.33-3.95-8.81-4.5-2.61-0.41-15.77-0.75-53.75-0.75l-0.5 77.5 7.75 0.58c4.26 0.31 9.33 0.33 11.25 0.02 1.93-0.3 6.09-0.79 9.25-1.08 3.16-0.29 8.34-1.21 11.5-2.05 3.16-0.84 6.65-2.12 7.75-2.85 1.61-1.06 2.13-2.87 2.64-9.22 0.54-6.7 1-8.18 3-9.72 1.56-1.21 3.21-1.62 4.86-1.21 1.38 0.34 3.31 1.61 4.29 2.82 0.99 1.21 1.78 3.33 1.75 4.71-0.02 1.37-0.94 3.96-2.04 5.75-1.1 1.79-3.91 4.61-6.25 6.28-2.34 1.67-6.95 3.9-10.25 4.97-3.3 1.07-9.37 2.48-13.5 3.13-4.12 0.66-13.04 1.23-32.14 1.37l0.64 50.67 6 5.03 24.5-0.35c22.29-0.32 24.91-0.54 29-2.44 2.48-1.14 6.75-4.37 9.5-7.16 2.75-2.8 6.8-8.1 9-11.79 2.2-3.69 4.56-7.1 5.25-7.58 0.69-0.49 1.81-0.69 2.5-0.46 0.89 0.3-0.55 5.68-5.03 18.75-3.46 10.08-6.69 18.67-7.18 19.09-0.49 0.41-27.14 0.64-59.22 0.5-57.57-0.26-58.32-0.29-58.32-2.26 0-1.62 0.57-1.95 3-1.71 1.65 0.16 5.25-0.38 8-1.2 2.75-0.81 6-2.52 7.22-3.79 1.28-1.33 2.65-4.62 3.26-7.8 0.65-3.42 1.04-26.17 1.03-60-0.01-31.9-0.44-56.99-1.03-60.5-0.65-3.87-1.8-6.8-3.24-8.26-1.23-1.24-4.38-2.7-6.99-3.25-2.61-0.55-6.32-0.99-8.25-0.99-2.83 0-3.5-0.38-3.5-2 0-1.98 0.67-2 59-2zm201 0l0.72 15.75c0.39 8.66 0.73 16.2 0.75 16.75 0.02 0.55-1.05 1-2.38 1-1.93 0-2.51-0.61-2.84-3-0.23-1.65-1.26-5.25-2.28-8-1.02-2.75-3.12-6.3-4.66-7.89-1.55-1.59-4.38-3.59-6.31-4.45-2.82-1.25-8.75-1.61-58-2.16v78l7.75 0.58c4.26 0.31 9.33 0.33 11.25 0.02 1.93-0.3 6.2-0.81 9.5-1.12 3.3-0.32 8.7-1.23 12-2.03 3.3-0.81 6.79-2.25 7.76-3.21 1.22-1.2 1.99-4.17 2.5-9.56 0.58-6.14 1.17-8.14 2.74-9.27 1.1-0.8 2.68-1.45 3.5-1.46 0.83-0.01 2.74 0.89 4.25 2.01 2.26 1.67 2.75 2.8 2.73 6.29-0.02 3.74-0.58 4.79-4.75 8.81-2.94 2.83-6.99 5.42-10.73 6.85-3.3 1.26-9.6 2.96-14 3.78-4.4 0.82-14 1.56-34.69 1.81l0.69 50.67 6 5.03 24.5-0.35c22.94-0.33 24.81-0.5 29.25-2.6 2.61-1.24 6.89-4.46 9.5-7.15 2.61-2.7 6.78-8.33 9.25-12.5 3.46-5.84 4.97-7.54 6.5-7.35 1.1 0.14 1.89 0.59 1.75 1-0.14 0.41-2.56 7.84-5.38 16.5-2.83 8.66-5.76 16.99-7.87 21.25l-58.75-0.25c-57.08-0.25-58.75-0.31-58.75-2.16 0-1.61 0.8-1.94 5-2.07 2.75-0.08 7.03-1.11 9.5-2.28 2.54-1.19 5.16-3.35 6-4.93 1.28-2.39 1.54-11.72 1.78-62.31 0.18-37.45-0.1-61.36-0.74-64.5-0.56-2.78-2.02-6.01-3.27-7.26-1.59-1.58-4.37-2.6-9.27-3.38-3.85-0.61-7.56-1.28-8.25-1.49-0.69-0.2-1.25-1.05-1.25-1.87 0-1.32 7.28-1.5 119-1.5zm340 0l0.01 7.25c0 3.99 0.34 11.64 0.75 17 0.74 9.68 0.72 9.76-1.51 9.75-1.81 0-2.45-0.83-3.3-4.25-0.58-2.34-1.49-5.6-2.01-7.25-0.52-1.65-1.75-4.35-2.74-6-0.99-1.65-4.02-4.13-6.75-5.5-4.91-2.48-5.15-2.5-58.95-2.5l-0.25 38.25c-0.23 35.64-0.13 38.29 1.5 38.92 0.96 0.36 5.35 0.7 9.75 0.75 4.4 0.04 11.15-0.23 15-0.6 3.85-0.37 9.93-1.42 13.5-2.33 3.58-0.92 7.27-2.41 8.22-3.33 1.25-1.21 1.79-3.66 2-9 0.25-6.46 0.58-7.57 2.78-9.29 1.38-1.08 3.18-1.95 4-1.95 0.83 0.01 2.74 0.92 4.25 2.04 2.2 1.63 2.75 2.83 2.75 6.04 0 3.1-0.73 4.81-3.25 7.63-1.79 1.99-5.27 4.78-7.75 6.2-2.47 1.42-7.42 3.35-11 4.28-3.57 0.93-11.9 2.22-18.5 2.85-6.6 0.64-14.47 1.03-23 0.54v50.67l6 5.04 25-0.35c23.99-0.35 25.18-0.46 29.5-2.73 2.48-1.3 6.53-4.49 9-7.1 2.48-2.61 6.53-8.19 9-12.39 2.48-4.21 5.18-7.66 6-7.67 0.83-0.02 1.73 0.2 2 0.48 0.28 0.28-2.22 8.51-5.55 18.28-3.33 9.77-6.37 18.33-6.75 19.02-0.55 0.98-13.44 1.25-59.2 1.25-51.11 0-58.56-0.19-59-1.5-0.27-0.83 0.06-1.8 0.75-2.16 0.69-0.37 3.05-0.72 5.25-0.79 2.2-0.07 5.77-1.01 7.94-2.09 2.16-1.08 4.86-3.23 6-4.78 2.02-2.76 2.07-4.07 2.37-59 0.2-36.12-0.07-59.22-0.77-64.68-0.82-6.52-1.59-9.03-3.31-10.76-1.22-1.24-4.37-2.7-6.98-3.25-2.61-0.55-6.1-0.99-7.75-0.99-1.65 0-3.2-0.56-3.45-1.25-0.24-0.69-0.17-1.59 0.17-2 0.34-0.41 27.09-0.75 118.28-0.75zm141 0l0.01 5.75c0 3.16 0.34 10.81 0.75 17 0.74 11.23 0.74 11.26-1.51 11.25-1.64 0-2.41-0.74-2.84-2.75-0.32-1.51-1.28-5-2.14-7.75-0.85-2.75-2.31-6.13-3.25-7.5-0.93-1.38-3.91-3.63-6.61-5-4.87-2.48-5.1-2.5-58.91-2.5l-0.54 77 6.77 0.81c4.15 0.5 10.84 0.36 17.27-0.34 5.78-0.63 13.2-1.82 16.5-2.64 3.3-0.83 6.8-2.25 7.78-3.17 1.29-1.2 1.78-3.13 1.75-6.91-0.01-2.89 0.65-6.83 1.47-8.75 1.04-2.43 2.34-3.69 4.25-4.11 1.91-0.42 3.52-0.01 5.25 1.35 1.84 1.44 2.57 3.05 2.75 6.11 0.21 3.46-0.29 4.75-3 7.78-1.79 1.99-5.05 4.65-7.25 5.91-2.2 1.25-6.92 3.17-10.5 4.26-3.57 1.08-12.12 2.5-19 3.15-6.87 0.64-14.97 1.03-23.5 0.55v50.67l6 5.03 24.5-0.35c22.94-0.33 24.81-0.5 29.25-2.6 2.61-1.24 6.89-4.45 9.5-7.14 2.61-2.68 6.55-7.91 8.75-11.62 2.2-3.7 4.56-7.13 5.25-7.61 0.69-0.49 1.81-0.69 2.5-0.47 0.9 0.3-0.39 5.34-4.53 17.75-3.18 9.54-6.16 18.01-6.61 18.84-0.72 1.3-8.55 1.53-59.47 1.75-55.11 0.23-58.67 0.14-59.15-1.5-0.28-0.96-0.39-1.86-0.25-2 0.14-0.14 2.51-0.4 5.26-0.59 2.75-0.19 6.77-1.21 8.94-2.26 2.16-1.04 4.86-3.17 6-4.72 2.02-2.77 2.07-4.04 2.36-61 0.19-37.3-0.08-60.52-0.76-64.68-0.71-4.4-1.77-7.23-3.29-8.76-1.24-1.24-4.39-2.7-7-3.25-2.61-0.55-6.1-0.99-7.75-0.99-1.65 0-3.22-0.45-3.5-1-0.27-0.55-0.25-1.45 0.05-2 0.36-0.65 21.23-1 118.45-1zm-412.78 52c0.43 0 0.78 0.67 0.78 1.5 0 0.82-3.26 5.01-7.25 9.31-3.99 4.29-8.7 10.48-10.46 13.75-1.77 3.26-3.89 9.09-4.72 12.94-0.93 4.38-1.27 9.24-0.9 13 0.38 3.89 0.25 5.65-0.38 5-0.53-0.55-1.5-3.48-2.15-6.5-0.85-3.99-0.89-7.02-0.13-11 0.57-3.03 2.41-8.43 4.1-12 1.68-3.58 4.45-8.3 6.15-10.5 1.69-2.2 5.58-6.59 8.63-9.75 3.05-3.16 5.9-5.75 6.33-5.75zm1.35 44.13c0.65 4.05 1.95 10.07 2.9 13.37 0.94 3.3 3.18 9.15 4.97 13 1.78 3.85 4.89 9.14 6.9 11.75 2.02 2.61 3.66 4.97 3.66 5.25 0 0.27-1.91-0.68-4.25-2.11-2.34-1.44-6.83-5.15-9.99-8.25-3.71-3.64-6.7-7.77-8.42-11.64-2.05-4.6-2.68-7.64-2.7-13-0.02-3.97 0.54-8.08 1.29-9.5 0.73-1.38 2.04-3.34 2.9-4.37 1.46-1.75 1.65-1.39 2.74 5.5zm135.46 26.87c0.44 0-0.04 1.46-1.07 3.25-1.03 1.79-3.81 5.89-6.17 9.12-2.36 3.23-7.78 9.19-12.04 13.25-5.93 5.65-9.92 8.42-17 11.82-5.09 2.44-12.17 5.22-15.75 6.19-4.91 1.32-10.42 1.74-22.5 1.75-12.9 0-17.64-0.41-24.5-2.11-4.67-1.15-10.97-3.17-14-4.48-3.02-1.32-5.84-2.93-6.25-3.59-0.41-0.66 1.95-0.08 5.25 1.3 3.3 1.37 8.93 3.17 12.5 4 3.75 0.86 11.47 1.51 18.25 1.53 7.54 0.02 13.72-0.52 17.25-1.5 3.03-0.84 9.78-2.41 15-3.5 6.03-1.25 12.61-3.51 18-6.17 6.86-3.39 10.25-5.95 17.58-13.28 4.99-5 10.33-10.99 11.86-13.33 1.53-2.34 3.15-4.25 3.59-4.25zm-363.03 83h8l-0.23 24.5 29.23 0.5v-25l7.06 0.5 0.06 57h-6.62l-0.5-26.5-29.17 0.5-0.33 26-7.5 0.5zm143.44 0.5l10.53 28.25c5.79 15.53 10.34 28.47 10.12 28.75-0.23 0.27-1.92 0.5-3.75 0.5-1.84 0-3.55-0.56-3.8-1.25-0.26-0.69-1.38-3.84-4.54-12.75l-25.49 0.5-2.01 5.5c-1.1 3.03-2.34 6.06-2.75 6.75-0.41 0.69-2.32 1.25-4.25 1.25-1.92 0-3.5-0.45-3.5-1 0-0.55 1.54-4.94 3.42-9.75 1.89-4.81 6.46-16.85 10.18-26.75 3.71-9.9 7.17-18.57 7.69-19.26 0.53-0.7 2.54-1.14 8.15-0.74zm90.56-0.5h8.02l-0.52 57.5-7.5 0.5zm80.97 0h13.02c11.01 0 13.63 0.31 17.01 2 2.2 1.1 4.68 3.01 5.51 4.25 0.83 1.24 1.95 4.16 2.5 6.5 0.65 2.79 0.66 5.7 0.01 8.5-0.59 2.55-2.29 5.55-4.25 7.5-1.8 1.79-4.51 3.48-6.02 3.75-1.51 0.27-2.97 0.95-3.25 1.5-0.27 0.55 2.57 5.61 6.32 11.25 3.75 5.64 7.13 10.81 7.5 11.5 0.49 0.9-0.42 1.25-7.32 1.25l-15.5-23.98-8.5-0.02-0.5 23.5h-6zm7.03 28c18.02 0 18.2-0.05 21.26-3.25 2.86-3 3.05-3.64 2.5-8.25-0.44-3.57-1.36-5.72-3.21-7.5-2.3-2.21-3.65-2.55-11.45-2.87l-8.84-0.38zm-183.27-16.89c-0.37 0.77-2.76 6.98-5.32 13.82-2.56 6.83-4.6 12.68-4.53 13 0.07 0.31 4.73 0.5 10.37 0.4 5.64-0.09 10.17-0.54 10.08-1-0.09-0.45-2.28-6.68-4.87-13.83-2.58-7.15-4.78-13.17-4.88-13.39-0.1-0.22-0.49 0.23-0.85 1zm-168.73 14.89v5h-24.5c-23.03 0-24.51-0.11-24.67-1.83-0.09-1.01 0.21-2.13 0.67-2.5 0.46-0.37 11.56-0.67 48.5-0.67zm414.34 0h44.66v5l-49.5 0.05z" style="fill: rgb(255, 255, 255);"/>
</svg>